<svg width="24" height="24" viewBox="0 0 24 24" fill="none" xmlns="http://www.w3.org/2000/svg">
<path fill-rule="evenodd" clip-rule="evenodd" d="M21 2H12V4H17.5858L9.29289 12.2929C8.90237 12.6834 8.90237 13.3166 9.29289 13.7071C9.68342 14.0976 10.3166 14.0976 10.7071 13.7071L19 5.41421V11H21V2Z" fill="#00D7FF"/>
<path fill-rule="evenodd" clip-rule="evenodd" d="M5.90036 5.04616C6.39907 5.00096 7.04698 5 8 5C8.55228 5 9 4.55229 9 4C9 3.44772 8.55228 3 8 3L7.95396 3C7.05849 2.99998 6.31952 2.99997 5.71983 3.05432C5.09615 3.11085 4.52564 3.23242 4 3.5359C3.39192 3.88697 2.88697 4.39192 2.5359 5C2.23242 5.52564 2.11085 6.09615 2.05432 6.71983C1.99997 7.31953 1.99998 8.05851 2 8.95399V14.0705C1.99996 15.4247 1.99993 16.5413 2.11875 17.4251C2.24349 18.3529 2.51546 19.1723 3.17157 19.8284C3.82768 20.4845 4.64711 20.7565 5.57494 20.8813C6.4587 21.0001 7.57532 21 8.92945 21H14.046C14.9415 21 15.6805 21 16.2802 20.9457C16.9039 20.8892 17.4744 20.7676 18 20.4641C18.6081 20.113 19.113 19.6081 19.4641 19C19.7676 18.4744 19.8891 17.9039 19.9457 17.2802C20 16.6805 20 15.9415 20 15.046L20 15C20 14.4477 19.5523 14 19 14C18.4477 14 18 14.4477 18 15C18 15.953 17.999 16.6009 17.9538 17.0996C17.9099 17.5846 17.8305 17.8295 17.732 18C17.5565 18.304 17.304 18.5565 17 18.7321C16.8295 18.8305 16.5846 18.9099 16.0996 18.9538C15.6009 18.999 14.953 19 14 19H9C7.55752 19 6.57625 18.9979 5.84143 18.8991C5.13538 18.8042 4.80836 18.6368 4.58579 18.4142C4.36321 18.1916 4.19584 17.8646 4.10092 17.1586C4.00212 16.4237 4 15.4425 4 14V9C4 8.04698 4.00096 7.39908 4.04616 6.90036C4.09011 6.41539 4.1695 6.17051 4.26795 6C4.44348 5.69596 4.69596 5.44349 5 5.26795C5.17051 5.16951 5.41539 5.09011 5.90036 5.04616Z" fill="#00D7FF"/>
</svg>
